<?xml version="1.0" encoding="UTF-8" standalone="no"?>
<!-- Created with Inkscape (http://www.inkscape.org/) -->

<svg
   xmlns:dc="http://purl.org/dc/elements/1.1/"
   xmlns:cc="http://creativecommons.org/ns#"
   xmlns:rdf="http://www.w3.org/1999/02/22-rdf-syntax-ns#"
   xmlns:svg="http://www.w3.org/2000/svg"
   xmlns="http://www.w3.org/2000/svg"
   xmlns:sodipodi="http://sodipodi.sourceforge.net/DTD/sodipodi-0.dtd"
   xmlns:inkscape="http://www.inkscape.org/namespaces/inkscape"
   width="563.92163"
   height="536.11432"
   id="svg2"
   version="1.1"
   inkscape:version="0.48.4 r9939"
   sodipodi:docname="logo_calmip.svg">
  <defs
     id="defs4" />
  <sodipodi:namedview
     id="base"
     pagecolor="#ffffff"
     bordercolor="#666666"
     borderopacity="1.0"
     inkscape:pageopacity="0.0"
     inkscape:pageshadow="2"
     inkscape:zoom="0.70710678"
     inkscape:cx="144.529"
     inkscape:cy="110.9945"
     inkscape:document-units="px"
     inkscape:current-layer="layer1"
     showgrid="false"
     inkscape:window-width="1855"
     inkscape:window-height="1056"
     inkscape:window-x="65"
     inkscape:window-y="24"
     inkscape:window-maximized="1"
     showguides="true"
     fit-margin-top="0"
     fit-margin-left="0"
     fit-margin-right="0"
     fit-margin-bottom="0">
    <inkscape:grid
       type="xygrid"
       id="grid2993"
       empspacing="5"
       visible="true"
       enabled="true"
       snapvisiblegridlinesonly="true"
       originx="-92.923986px"
       originy="-371.3848px" />
  </sodipodi:namedview>
  <metadata
     id="metadata7">
    <rdf:RDF>
      <cc:Work
         rdf:about="">
        <dc:format>image/svg+xml</dc:format>
        <dc:type
           rdf:resource="http://purl.org/dc/dcmitype/StillImage" />
        <dc:title />
      </cc:Work>
    </rdf:RDF>
  </metadata>
  <g
     inkscape:label="Calque 1"
     inkscape:groupmode="layer"
     id="layer1"
     transform="translate(-92.923986,-144.86308)">
    <g
       id="g3208">
      <g
         transform="translate(19.79899,373.35238)"
         id="g3760">
        <path
           inkscape:connector-curvature="0"
           d="m 157.77652,250.67681 -0.0884,20.96718 -46.97259,-10e-4 c -24.53297,-0.0469 -36.602735,-20.79266 -36.595203,-48.92984 0.0075,-28.13718 16.106901,-45.75568 38.843743,-46.0243 l 44.76255,-0.137 0.0499,21.0625 -40.0625,0.0249 c -13.30677,0.18597 -17.30597,15.29375 -17.3433,25.66479 -0.0373,10.37104 4.48852,27.25817 16.32137,27.35304 z m 11.95011,-7.27803 c -0.42277,-22.97216 16.88671,-29.44019 26.98311,-29.67568 l 43.95745,-0.0615 -0.0129,-8.11171 c 0.0686,-4.82644 -5.68106,-8.93507 -9.9664,-8.90266 l -54.99438,0.005 0.006,-20.02307 64.73378,0.0391 c 12.84135,-0.1396 26.11572,13.84981 26.21063,25.40943 l 0.0642,69.56629 -76.01701,-0.004 c -10.82548,0.0933 -20.96448,-11.49229 -20.96448,-28.2412 z m 70.83452,-9.85347 -37.68547,0.18695 c -4.44085,-0.009 -7.21996,4.49461 -7.22411,10.03878 -0.004,5.54417 3.92219,8.78227 7.87056,8.79243 l 37.17677,0.0563 z m 47.12167,-91.91589 26.99936,10e-4 0.0154,129.99968 -27.04689,0.011 z"
           style="fill:#295494;stroke:#f1e7aa;stroke-width:2;stroke-miterlimit:4;stroke-opacity:1;stroke-dasharray:none"
           sodipodi:nodetypes="ccczcccczcccccccccccccccczcccccccc"
           id="path3052" />
        <path
           inkscape:connector-curvature="0"
           id="path3046"
           d="m 541.03518,176.61173 c 0,0 46.09274,0.0615 56.96628,-3e-4 10.87354,-0.0618 20.09304,4.88459 27.60371,14.06712 7.51067,9.18253 10.87867,21.94666 10.39483,33.68363 -0.48384,11.73697 -1.61733,21.03824 -8.33498,30.159 -6.71765,9.12076 -18.66502,16.841 -29.66502,16.841 -11,0 -31,0 -31,0 l 0.0698,35.27149 -26.0259,0.002 z M 607,242.36218 c 3,-5 5,-11.5 5,-18 0,-6.5 -1.27196,-13.93814 -5,-19 -3.72804,-5.06186 -9.5,-8 -14,-8 -4.5,0 -26,0 -26,0 l 0,53 c 0,0 20.5,0 26,0 5.5,0 11,-3 14,-8 z m -272.0108,-66.49633 104.85755,0.0302 c 19.1503,0.043 30.78621,10.12053 31.03153,28.04514 l 0.0818,67.24506 -26.06017,0.0107 -0.0294,-65.09099 c 0.0826,-5.31481 -4.06477,-8.90662 -8.13752,-8.90902 l -20.79227,-0.0118 0.0859,73.96875 -26.10472,-0.0104 -0.22872,-73.78125 -28.69315,0 -0.0965,73.8347 -26.00266,0 z m 158.05344,0.77904 26.99596,-0.008 -0.0593,94.98896 -26.91434,0 z m -0.0786,-35.10155 27.05134,0.0112 0.0112,24.05134 -26.99554,0 z"
           style="fill:#94043a;stroke:#f1e7aa;stroke-width:2;stroke-miterlimit:4;stroke-opacity:1;stroke-dasharray:none"
           sodipodi:nodetypes="czzzzzcccczzzzcczzccccccccccccccccccccccccc" />
      </g>
      <g
         transform="matrix(3.1141963,0,0,3.1141963,110.32253,-883.91905)"
         id="g4778">
        <g
           id="g18"
           transform="matrix(1.25,0,0,-1.25,84.859564,387.58325)">
          <path
             inkscape:connector-curvature="0"
             d="M 0,0 -5.611,3.24 0,6.481 5.614,3.24 0,0 z"
             style="fill:#fdf3a5;fill-opacity:1;fill-rule:nonzero;stroke:none"
             id="path20" />
        </g>
        <g
           id="g22"
           transform="matrix(1.25,0,0,-1.25,84.859564,395.68262)">
          <path
             inkscape:connector-curvature="0"
             d="M 0,0 0,6.479 5.614,9.72 5.614,3.24 0,0 z"
             style="fill:#92113c;fill-opacity:1;fill-rule:nonzero;stroke:none"
             id="path24" />
        </g>
        <g
           id="g26"
           transform="matrix(1.25,0,0,-1.25,84.859564,395.68262)">
          <path
             inkscape:connector-curvature="0"
             d="m 0,0 0,6.479 -5.611,3.241 0,-6.48 L 0,0 z"
             style="fill:#1d509a;fill-opacity:1;fill-rule:nonzero;stroke:none"
             id="path28" />
        </g>
        <g
           id="g30"
           transform="matrix(1.25,0,0,-1.25,42.626814,395.89562)">
          <path
             inkscape:connector-curvature="0"
             d="M 0,0 -5.611,3.24 0,6.481 5.614,3.24 0,0 z"
             style="fill:#fdf3a5;fill-opacity:1;fill-rule:nonzero;stroke:none"
             id="path32" />
        </g>
        <g
           id="g34"
           transform="matrix(1.25,0,0,-1.25,42.626814,403.995)">
          <path
             inkscape:connector-curvature="0"
             d="M 0,0 0,6.479 5.614,9.72 5.614,3.24 0,0 z"
             style="fill:#92113c;fill-opacity:1;fill-rule:nonzero;stroke:none"
             id="path36" />
        </g>
        <g
           id="g38"
           transform="matrix(1.25,0,0,-1.25,42.626814,403.995)">
          <path
             inkscape:connector-curvature="0"
             d="m 0,0 0,6.479 -5.611,3.241 0,-6.48 L 0,0 z"
             style="fill:#1d509a;fill-opacity:1;fill-rule:nonzero;stroke:none"
             id="path40" />
        </g>
        <g
           id="g42"
           transform="matrix(1.25,0,0,-1.25,46.135814,397.92012)">
          <path
             inkscape:connector-curvature="0"
             d="M 0,0 10.311,-6.029"
             style="fill:none;stroke:#8892b8;stroke-width:0.75;stroke-linecap:round;stroke-linejoin:miter;stroke-miterlimit:10;stroke-opacity:1;stroke-dasharray:none"
             id="path44" />
        </g>
        <g
           id="g46"
           transform="matrix(1.25,0,0,-1.25,70.692684,346.55413)">
          <path
             inkscape:connector-curvature="0"
             d="M 0,0 -5.611,3.24 0,6.481 5.614,3.24 0,0 z"
             style="fill:#fdf3a5;fill-opacity:1;fill-rule:nonzero;stroke:none"
             id="path48" />
        </g>
        <g
           id="g50"
           transform="matrix(1.25,0,0,-1.25,70.692684,354.6535)">
          <path
             inkscape:connector-curvature="0"
             d="M 0,0 0,6.479 5.614,9.72 5.614,3.24 0,0 z"
             style="fill:#92113c;fill-opacity:1;fill-rule:nonzero;stroke:none"
             id="path52" />
        </g>
        <g
           id="g54"
           transform="matrix(1.25,0,0,-1.25,70.692684,354.6535)">
          <path
             inkscape:connector-curvature="0"
             d="m 0,0 0,6.479 -5.611,3.241 0,-6.48 L 0,0 z"
             style="fill:#1d509a;fill-opacity:1;fill-rule:nonzero;stroke:none"
             id="path56" />
        </g>
        <g
           id="g58"
           transform="matrix(1.25,0,0,-1.25,74.201564,348.57875)">
          <path
             inkscape:connector-curvature="0"
             d="M 0,0 10.233,-5.965"
             style="fill:none;stroke:#8892b8;stroke-width:0.75;stroke-linecap:round;stroke-linejoin:miter;stroke-miterlimit:10;stroke-opacity:1;stroke-dasharray:none"
             id="path60" />
        </g>
        <g
           id="g62"
           transform="matrix(1.25,0,0,-1.25,84.852184,355.17112)">
          <path
             inkscape:connector-curvature="0"
             d="M 0,0 -5.611,3.24 0,6.481 5.614,3.24 0,0 z"
             style="fill:#fdf3a5;fill-opacity:1;fill-rule:nonzero;stroke:none"
             id="path64" />
        </g>
        <g
           id="g66"
           transform="matrix(1.25,0,0,-1.25,84.852184,363.2705)">
          <path
             inkscape:connector-curvature="0"
             d="M 0,0 0,6.479 5.614,9.72 5.614,3.24 0,0 z"
             style="fill:#92113c;fill-opacity:1;fill-rule:nonzero;stroke:none"
             id="path68" />
        </g>
        <g
           id="g70"
           transform="matrix(1.25,0,0,-1.25,84.852184,363.2705)">
          <path
             inkscape:connector-curvature="0"
             d="m 0,0 0,6.479 -5.611,3.241 0,-6.48 L 0,0 z"
             style="fill:#1d509a;fill-opacity:1;fill-rule:nonzero;stroke:none"
             id="path72" />
        </g>
        <g
           id="g74"
           transform="matrix(1.25,0,0,-1.25,84.849814,351.12087)">
          <path
             inkscape:connector-curvature="0"
             d="M 0,0 0.004,5.318"
             style="fill:none;stroke:#8892b8;stroke-width:0.75;stroke-linecap:round;stroke-linejoin:miter;stroke-miterlimit:10;stroke-opacity:1;stroke-dasharray:none"
             id="path76" />
        </g>
        <g
           id="g78"
           transform="matrix(1.25,0,0,-1.25,81.282314,357.23225)">
          <path
             inkscape:connector-curvature="0"
             d="M 0,0 -15.119,-8.729"
             style="fill:none;stroke:#8892b8;stroke-width:0.75;stroke-linecap:round;stroke-linejoin:miter;stroke-miterlimit:10;stroke-opacity:1;stroke-dasharray:none"
             id="path80" />
        </g>
        <g
           id="g82"
           transform="matrix(1.25,0,0,-1.25,77.845314,391.63225)">
          <path
             inkscape:connector-curvature="0"
             d="M 0,0 -11.856,-6.648"
             style="fill:none;stroke:#8892b8;stroke-width:0.75;stroke-linecap:round;stroke-linejoin:miter;stroke-miterlimit:10;stroke-opacity:1;stroke-dasharray:none"
             id="path84" />
        </g>
        <g
           id="g86"
           transform="matrix(1.25,0,0,-1.25,77.845314,391.63225)">
          <path
             inkscape:connector-curvature="0"
             d="M 0,0 0.443,0.353"
             style="fill:none;stroke:#8892b8;stroke-width:0.5;stroke-linecap:butt;stroke-linejoin:miter;stroke-miterlimit:10;stroke-opacity:1;stroke-dasharray:none"
             id="path88" />
        </g>
        <g
           id="g90"
           transform="matrix(1.25,0,0,-1.25,56.664314,420.71062)">
          <path
             inkscape:connector-curvature="0"
             d="M 0,0 -5.611,3.24 0,6.481 5.614,3.24 0,0 z"
             style="fill:#fdf3a5;fill-opacity:1;fill-rule:nonzero;stroke:none"
             id="path92" />
        </g>
        <g
           id="g94"
           transform="matrix(1.25,0,0,-1.25,56.664314,428.81125)">
          <path
             inkscape:connector-curvature="0"
             d="M 0,0 0,6.48 5.614,9.721 5.614,3.24 0,0 z"
             style="fill:#92113c;fill-opacity:1;fill-rule:nonzero;stroke:none"
             id="path96" />
        </g>
        <g
           id="g98"
           transform="matrix(1.25,0,0,-1.25,56.664314,428.81125)">
          <path
             inkscape:connector-curvature="0"
             d="m 0,0 0,6.48 -5.611,3.241 0,-6.481 L 0,0 z"
             style="fill:#1d509a;fill-opacity:1;fill-rule:nonzero;stroke:none"
             id="path100" />
        </g>
        <g
           id="g102"
           transform="matrix(1.25,0,0,-1.25,56.666184,416.66037)">
          <path
             inkscape:connector-curvature="0"
             d="M 0,0 0,8.063"
             style="fill:none;stroke:#8892b8;stroke-width:0.75;stroke-linecap:round;stroke-linejoin:miter;stroke-miterlimit:10;stroke-opacity:1;stroke-dasharray:none"
             id="path104" />
        </g>
        <g
           id="g106"
           transform="matrix(1.25,0,0,-1.25,56.662564,403.61475)">
          <path
             inkscape:connector-curvature="0"
             d="M 0,0 -5.611,3.24 0,6.481 5.614,3.24 0,0 z"
             style="fill:#fdf3a5;fill-opacity:1;fill-rule:nonzero;stroke:none"
             id="path108" />
        </g>
        <g
           id="g110"
           transform="matrix(1.25,0,0,-1.25,56.662564,411.71412)">
          <path
             inkscape:connector-curvature="0"
             d="M 0,0 0,6.479 5.614,9.72 5.614,3.24 0,0 z"
             style="fill:#92113c;fill-opacity:1;fill-rule:nonzero;stroke:none"
             id="path112" />
        </g>
        <g
           id="g114"
           transform="matrix(1.25,0,0,-1.25,56.662564,411.71412)">
          <path
             inkscape:connector-curvature="0"
             d="m 0,0 0,6.479 -5.611,3.241 0,-6.48 L 0,0 z"
             style="fill:#1d509a;fill-opacity:1;fill-rule:nonzero;stroke:none"
             id="path116" />
        </g>
        <g
           id="g118"
           transform="matrix(1.25,0,0,-1.25,56.666184,399.56437)">
          <path
             inkscape:connector-curvature="0"
             d="M 0,0 0,17.761"
             style="fill:none;stroke:#8892b8;stroke-width:0.75;stroke-linecap:round;stroke-linejoin:miter;stroke-miterlimit:10;stroke-opacity:1;stroke-dasharray:none"
             id="path120" />
        </g>
        <g
           id="g122"
           transform="matrix(1.25,0,0,-1.25,42.628684,363.345)">
          <path
             inkscape:connector-curvature="0"
             d="M 0,0 -5.611,3.24 0,6.481 5.614,3.24 0,0 z"
             style="fill:#fdf3a5;fill-opacity:1;fill-rule:nonzero;stroke:none"
             id="path124" />
        </g>
        <g
           id="g126"
           transform="matrix(1.25,0,0,-1.25,42.628684,371.44425)">
          <path
             inkscape:connector-curvature="0"
             d="M 0,0 0,6.479 5.614,9.72 5.614,3.24 0,0 z"
             style="fill:#92113c;fill-opacity:1;fill-rule:nonzero;stroke:none"
             id="path128" />
        </g>
        <g
           id="g130"
           transform="matrix(1.25,0,0,-1.25,42.628684,371.44425)">
          <path
             inkscape:connector-curvature="0"
             d="m 0,0 0,6.479 -5.611,3.241 0,-6.48 L 0,0 z"
             style="fill:#1d509a;fill-opacity:1;fill-rule:nonzero;stroke:none"
             id="path132" />
        </g>
        <g
           id="g134"
           transform="matrix(1.25,0,0,-1.25,46.137564,365.3695)">
          <path
             inkscape:connector-curvature="0"
             d="M 0,0 4.31,-2.411"
             style="fill:none;stroke:#8892b8;stroke-width:0.75;stroke-linecap:round;stroke-linejoin:miter;stroke-miterlimit:10;stroke-opacity:1;stroke-dasharray:none"
             id="path136" />
        </g>
        <g
           id="g138"
           transform="matrix(1.25,0,0,-1.25,56.658814,371.44675)">
          <path
             inkscape:connector-curvature="0"
             d="M 0,0 -5.611,3.24 0,6.481 5.614,3.24 0,0 z"
             style="fill:#fdf3a5;fill-opacity:1;fill-rule:nonzero;stroke:none"
             id="path140" />
        </g>
        <g
           id="g142"
           transform="matrix(1.25,0,0,-1.25,56.658814,379.54612)">
          <path
             inkscape:connector-curvature="0"
             d="M 0,0 0,6.479 5.614,9.72 5.614,3.24 0,0 z"
             style="fill:#92113c;fill-opacity:1;fill-rule:nonzero;stroke:none"
             id="path144" />
        </g>
        <g
           id="g146"
           transform="matrix(1.25,0,0,-1.25,56.658814,379.54612)">
          <path
             inkscape:connector-curvature="0"
             d="m 0,0 0,6.479 -5.611,3.241 0,-6.48 L 0,0 z"
             style="fill:#1d509a;fill-opacity:1;fill-rule:nonzero;stroke:none"
             id="path148" />
        </g>
        <g
           id="g150"
           transform="matrix(1.25,0,0,-1.25,56.666184,367.39462)">
          <path
             inkscape:connector-curvature="0"
             d="M 0,0 -0.006,5.962"
             style="fill:none;stroke:#8892b8;stroke-width:0.75;stroke-linecap:round;stroke-linejoin:miter;stroke-miterlimit:10;stroke-opacity:1;stroke-dasharray:none"
             id="path152" />
        </g>
        <g
           id="g154"
           transform="matrix(1.25,0,0,-1.25,70.827564,379.48262)">
          <path
             inkscape:connector-curvature="0"
             d="M 0,0 -5.611,3.24 0,6.481 5.614,3.24 0,0 z"
             style="fill:#fdf3a5;fill-opacity:1;fill-rule:nonzero;stroke:none"
             id="path156" />
        </g>
        <g
           id="g158"
           transform="matrix(1.25,0,0,-1.25,70.827564,387.582)">
          <path
             inkscape:connector-curvature="0"
             d="M 0,0 0,6.479 5.614,9.72 5.614,3.24 0,0 z"
             style="fill:#92113c;fill-opacity:1;fill-rule:nonzero;stroke:none"
             id="path160" />
        </g>
        <g
           id="g162"
           transform="matrix(1.25,0,0,-1.25,70.827564,387.582)">
          <path
             inkscape:connector-curvature="0"
             d="m 0,0 0,6.479 -5.611,3.241 0,-6.48 L 0,0 z"
             style="fill:#1d509a;fill-opacity:1;fill-rule:nonzero;stroke:none"
             id="path164" />
        </g>
        <g
           id="g166"
           transform="matrix(1.25,0,0,-1.25,60.167814,373.47125)">
          <path
             inkscape:connector-curvature="0"
             d="M 0,0 14.434,-8.218"
             style="fill:none;stroke:#8892b8;stroke-width:0.75;stroke-linecap:round;stroke-linejoin:miter;stroke-miterlimit:10;stroke-opacity:1;stroke-dasharray:none"
             id="path168" />
        </g>
        <g
           id="g170"
           transform="matrix(1.25,0,0,-1.25,56.660684,354.65475)">
          <path
             inkscape:connector-curvature="0"
             d="M 0,0 -5.611,3.24 0,6.481 5.614,3.24 0,0 z"
             style="fill:#fdf3a5;fill-opacity:1;fill-rule:nonzero;stroke:none"
             id="path172" />
        </g>
        <g
           id="g174"
           transform="matrix(1.25,0,0,-1.25,56.660684,362.75412)">
          <path
             inkscape:connector-curvature="0"
             d="M 0,0 0,6.479 5.614,9.72 5.614,3.24 0,0 z"
             style="fill:#92113c;fill-opacity:1;fill-rule:nonzero;stroke:none"
             id="path176" />
        </g>
        <g
           id="g178"
           transform="matrix(1.25,0,0,-1.25,56.660684,362.75412)">
          <path
             inkscape:connector-curvature="0"
             d="m 0,0 0,6.479 -5.611,3.241 0,-6.48 L 0,0 z"
             style="fill:#1d509a;fill-opacity:1;fill-rule:nonzero;stroke:none"
             id="path180" />
        </g>
        <g
           id="g182"
           transform="matrix(1.25,0,0,-1.25,59.924194,405.87425)">
          <path
             inkscape:connector-curvature="0"
             d="M 0,0 15.99,-9.23"
             style="fill:none;stroke:#8892b8;stroke-width:0.75;stroke-linecap:round;stroke-linejoin:miter;stroke-miterlimit:10;stroke-opacity:1;stroke-dasharray:none"
             id="path184" />
        </g>
        <g
           id="g186"
           transform="matrix(1.25,0,0,-1.25,84.847314,403.99312)">
          <path
             inkscape:connector-curvature="0"
             d="M 0,0 -5.611,3.24 0,6.481 5.614,3.24 0,0 z"
             style="fill:#fdf3a5;fill-opacity:1;fill-rule:nonzero;stroke:none"
             id="path188" />
        </g>
        <g
           id="g190"
           transform="matrix(1.25,0,0,-1.25,84.847314,412.0925)">
          <path
             inkscape:connector-curvature="0"
             d="M 0,0 0,6.479 5.614,9.72 5.614,3.24 0,0 z"
             style="fill:#92113c;fill-opacity:1;fill-rule:nonzero;stroke:none"
             id="path192" />
        </g>
        <g
           id="g194"
           transform="matrix(1.25,0,0,-1.25,84.847314,412.0925)">
          <path
             inkscape:connector-curvature="0"
             d="m 0,0 0,6.479 -5.611,3.241 0,-6.48 L 0,0 z"
             style="fill:#1d509a;fill-opacity:1;fill-rule:nonzero;stroke:none"
             id="path196" />
        </g>
        <g
           id="g198"
           transform="matrix(1.25,0,0,-1.25,113.04306,420.71062)">
          <path
             inkscape:connector-curvature="0"
             d="M 0,0 -5.611,3.24 0,6.481 5.614,3.24 0,0 z"
             style="fill:#fdf3a5;fill-opacity:1;fill-rule:nonzero;stroke:none"
             id="path200" />
        </g>
        <g
           id="g202"
           transform="matrix(1.25,0,0,-1.25,113.04306,428.81)">
          <path
             inkscape:connector-curvature="0"
             d="M 0,0 0,6.479 5.614,9.72 5.614,3.24 0,0 z"
             style="fill:#92113c;fill-opacity:1;fill-rule:nonzero;stroke:none"
             id="path204" />
        </g>
        <g
           id="g206"
           transform="matrix(1.25,0,0,-1.25,113.04306,428.81)">
          <path
             inkscape:connector-curvature="0"
             d="m 0,0 0,6.479 -5.611,3.241 0,-6.48 L 0,0 z"
             style="fill:#1d509a;fill-opacity:1;fill-rule:nonzero;stroke:none"
             id="path208" />
        </g>
        <g
           id="g210"
           transform="matrix(1.25,0,0,-1.25,113.04068,416.66037)">
          <path
             inkscape:connector-curvature="0"
             d="M 0,0 0,7.104"
             style="fill:none;stroke:#8892b8;stroke-width:0.75;stroke-linecap:round;stroke-linejoin:miter;stroke-miterlimit:10;stroke-opacity:1;stroke-dasharray:none"
             id="path212" />
        </g>
        <g
           id="g214"
           transform="matrix(1.25,0,0,-1.25,113.04068,403.995)">
          <path
             inkscape:connector-curvature="0"
             d="M 0,0 -5.611,3.24 0,6.481 5.614,3.24 0,0 z"
             style="fill:#fdf3a5;fill-opacity:1;fill-rule:nonzero;stroke:none"
             id="path216" />
        </g>
        <g
           id="g218"
           transform="matrix(1.25,0,0,-1.25,113.04068,412.09437)">
          <path
             inkscape:connector-curvature="0"
             d="M 0,0 0,6.479 5.614,9.72 5.614,3.24 0,0 z"
             style="fill:#92113c;fill-opacity:1;fill-rule:nonzero;stroke:none"
             id="path220" />
        </g>
        <g
           id="g222"
           transform="matrix(1.25,0,0,-1.25,113.04068,412.09437)">
          <path
             inkscape:connector-curvature="0"
             d="m 0,0 0,6.479 -5.611,3.241 0,-6.48 L 0,0 z"
             style="fill:#1d509a;fill-opacity:1;fill-rule:nonzero;stroke:none"
             id="path224" />
        </g>
        <g
           id="g226"
           transform="matrix(1.25,0,0,-1.25,113.04068,378.926)">
          <path
             inkscape:connector-curvature="0"
             d="M 0,0 0.004,-16.813"
             style="fill:none;stroke:#8892b8;stroke-width:0.75;stroke-linecap:round;stroke-linejoin:miter;stroke-miterlimit:10;stroke-opacity:1;stroke-dasharray:none"
             id="path228" />
        </g>
        <g
           id="g230"
           transform="matrix(1.25,0,0,-1.25,116.55144,406.01525)">
          <path
             inkscape:connector-curvature="0"
             d="M 0,0 5.947,-3.437"
             style="fill:none;stroke:#8892b8;stroke-width:0.75;stroke-linecap:round;stroke-linejoin:miter;stroke-miterlimit:10;stroke-opacity:1;stroke-dasharray:none"
             id="path232" />
        </g>
        <g
           id="g234"
           transform="matrix(1.25,0,0,-1.25,109.53843,406.01762)">
          <path
             inkscape:connector-curvature="0"
             d="M 0,0 -15.884,-9.116"
             style="fill:none;stroke:#8892b8;stroke-width:0.75;stroke-linecap:round;stroke-linejoin:miter;stroke-miterlimit:10;stroke-opacity:1;stroke-dasharray:none"
             id="path236" />
        </g>
        <g
           id="g238"
           transform="matrix(1.25,0,0,-1.25,84.844814,436.91187)">
          <path
             inkscape:connector-curvature="0"
             d="M 0,0 -5.611,3.24 0,6.481 5.614,3.24 0,0 z"
             style="fill:#fdf3a5;fill-opacity:1;fill-rule:nonzero;stroke:none"
             id="path240" />
        </g>
        <g
           id="g242"
           transform="matrix(1.25,0,0,-1.25,84.844814,445.01125)">
          <path
             inkscape:connector-curvature="0"
             d="M 0,0 0,6.479 5.614,9.72 5.614,3.24 0,0 z"
             style="fill:#92113c;fill-opacity:1;fill-rule:nonzero;stroke:none"
             id="path244" />
        </g>
        <g
           id="g246"
           transform="matrix(1.25,0,0,-1.25,84.844814,445.01125)">
          <path
             inkscape:connector-curvature="0"
             d="m 0,0 0,6.479 -5.611,3.241 0,-6.48 L 0,0 z"
             style="fill:#1d509a;fill-opacity:1;fill-rule:nonzero;stroke:none"
             id="path248" />
        </g>
        <g
           id="g250"
           transform="matrix(1.25,0,0,-1.25,84.859564,432.8615)">
          <path
             inkscape:connector-curvature="0"
             d="M 0,0 0,6.892"
             style="fill:none;stroke:#8892b8;stroke-width:0.75;stroke-linecap:round;stroke-linejoin:miter;stroke-miterlimit:10;stroke-opacity:1;stroke-dasharray:none"
             id="path252" />
        </g>
        <g
           id="g254"
           transform="matrix(1.25,0,0,-1.25,84.859564,420.19675)">
          <path
             inkscape:connector-curvature="0"
             d="M 0,0 -5.611,3.24 0,6.481 5.614,3.24 0,0 z"
             style="fill:#fdf3a5;fill-opacity:1;fill-rule:nonzero;stroke:none"
             id="path256" />
        </g>
        <g
           id="g258"
           transform="matrix(1.25,0,0,-1.25,84.859564,428.29612)">
          <path
             inkscape:connector-curvature="0"
             d="M 0,0 0,6.479 5.614,9.72 5.614,3.24 0,0 z"
             style="fill:#92113c;fill-opacity:1;fill-rule:nonzero;stroke:none"
             id="path260" />
        </g>
        <g
           id="g262"
           transform="matrix(1.25,0,0,-1.25,84.859564,428.29612)">
          <path
             inkscape:connector-curvature="0"
             d="m 0,0 0,6.479 -5.611,3.241 0,-6.48 L 0,0 z"
             style="fill:#1d509a;fill-opacity:1;fill-rule:nonzero;stroke:none"
             id="path264" />
        </g>
        <g
           id="g266"
           transform="matrix(1.25,0,0,-1.25,88.372684,422.22437)">
          <path
             inkscape:connector-curvature="0"
             d="M 0,0 6.21,-3.559"
             style="fill:none;stroke:#8892b8;stroke-width:0.75;stroke-linecap:round;stroke-linejoin:miter;stroke-miterlimit:10;stroke-opacity:1;stroke-dasharray:none"
             id="path268" />
        </g>
        <g
           id="g270"
           transform="matrix(1.25,0,0,-1.25,98.874434,428.29737)">
          <path
             inkscape:connector-curvature="0"
             d="M 0,0 -5.611,3.24 0,6.481 5.614,3.24 0,0 z"
             style="fill:#fdf3a5;fill-opacity:1;fill-rule:nonzero;stroke:none"
             id="path272" />
        </g>
        <g
           id="g274"
           transform="matrix(1.25,0,0,-1.25,98.874434,436.39675)">
          <path
             inkscape:connector-curvature="0"
             d="M 0,0 0,6.479 5.614,9.72 5.614,3.24 0,0 z"
             style="fill:#92113c;fill-opacity:1;fill-rule:nonzero;stroke:none"
             id="path276" />
        </g>
        <g
           id="g278"
           transform="matrix(1.25,0,0,-1.25,98.874434,436.39675)">
          <path
             inkscape:connector-curvature="0"
             d="m 0,0 0,6.479 -5.611,3.241 0,-6.48 L 0,0 z"
             style="fill:#1d509a;fill-opacity:1;fill-rule:nonzero;stroke:none"
             id="path280" />
        </g>
        <g
           id="g282"
           transform="matrix(1.25,0,0,-1.25,84.847314,395.01975)">
          <path
             inkscape:connector-curvature="0"
             d="M 0,0 0.012,-16.901"
             style="fill:none;stroke:#8892b8;stroke-width:0.75;stroke-linecap:round;stroke-linejoin:miter;stroke-miterlimit:10;stroke-opacity:1;stroke-dasharray:none"
             id="path284" />
        </g>
        <g
           id="g286"
           transform="matrix(1.25,0,0,-1.25,88.358064,357.19262)">
          <path
             inkscape:connector-curvature="0"
             d="M 0,0 15.507,-8.953"
             style="fill:none;stroke:#8892b8;stroke-width:0.75;stroke-linecap:round;stroke-linejoin:miter;stroke-miterlimit:10;stroke-opacity:1;stroke-dasharray:none"
             id="path288" />
        </g>
        <g
           id="g290"
           transform="matrix(1.25,0,0,-1.25,113.04306,371.4455)">
          <path
             inkscape:connector-curvature="0"
             d="M 0,0 -5.611,3.24 0,6.481 5.614,3.24 0,0 z"
             style="fill:#fdf3a5;fill-opacity:1;fill-rule:nonzero;stroke:none"
             id="path292" />
        </g>
        <g
           id="g294"
           transform="matrix(1.25,0,0,-1.25,113.04306,379.54487)">
          <path
             inkscape:connector-curvature="0"
             d="M 0,0 0,6.479 5.614,9.72 5.614,3.24 0,0 z"
             style="fill:#92113c;fill-opacity:1;fill-rule:nonzero;stroke:none"
             id="path296" />
        </g>
        <g
           id="g298"
           transform="matrix(1.25,0,0,-1.25,113.04306,379.54487)">
          <path
             inkscape:connector-curvature="0"
             d="m 0,0 0,6.479 -5.611,3.241 0,-6.48 L 0,0 z"
             style="fill:#1d509a;fill-opacity:1;fill-rule:nonzero;stroke:none"
             id="path300" />
        </g>
        <g
           id="g302"
           transform="matrix(1.25,0,0,-1.25,113.04068,367.39525)">
          <path
             inkscape:connector-curvature="0"
             d="M 0,0 0.004,6.463"
             style="fill:none;stroke:#8892b8;stroke-width:0.75;stroke-linecap:round;stroke-linejoin:miter;stroke-miterlimit:10;stroke-opacity:1;stroke-dasharray:none"
             id="path304" />
        </g>
        <g
           id="g306"
           transform="matrix(1.25,0,0,-1.25,116.58556,373.41275)">
          <path
             inkscape:connector-curvature="0"
             d="M 0,0 7.784,-4.411"
             style="fill:none;stroke:#8892b8;stroke-width:0.75;stroke-linecap:round;stroke-linejoin:miter;stroke-miterlimit:10;stroke-opacity:1;stroke-dasharray:none"
             id="path308" />
        </g>
        <g
           id="g310"
           transform="matrix(1.25,0,0,-1.25,109.50306,373.41275)">
          <path
             inkscape:connector-curvature="0"
             d="M 0,0 -14.712,-8.554"
             style="fill:none;stroke:#8892b8;stroke-width:0.75;stroke-linecap:round;stroke-linejoin:miter;stroke-miterlimit:10;stroke-opacity:1;stroke-dasharray:none"
             id="path312" />
        </g>
        <g
           id="g314"
           transform="matrix(1.25,0,0,-1.25,84.859564,387.58325)">
          <path
             inkscape:connector-curvature="0"
             d="M 0,0 -5.611,3.24 0,6.481 5.614,3.24 0,0 z"
             style="fill:#fdf3a5;fill-opacity:1;fill-rule:nonzero;stroke:none"
             id="path316" />
        </g>
        <g
           id="g318"
           transform="matrix(1.25,0,0,-1.25,84.859564,395.68262)">
          <path
             inkscape:connector-curvature="0"
             d="M 0,0 0,6.479 5.614,9.72 5.614,3.24 0,0 z"
             style="fill:#92113c;fill-opacity:1;fill-rule:nonzero;stroke:none"
             id="path320" />
        </g>
        <g
           id="g322"
           transform="matrix(1.25,0,0,-1.25,84.859564,395.68262)">
          <path
             inkscape:connector-curvature="0"
             d="m 0,0 0,6.479 -5.611,3.241 0,-6.48 L 0,0 z"
             style="fill:#1d509a;fill-opacity:1;fill-rule:nonzero;stroke:none"
             id="path324" />
        </g>
        <g
           id="g326"
           transform="matrix(1.25,0,0,-1.25,84.847314,383.53287)">
          <path
             inkscape:connector-curvature="0"
             d="M 0,0 0.012,4.936"
             style="fill:none;stroke:#8892b8;stroke-width:0.75;stroke-linecap:round;stroke-linejoin:miter;stroke-miterlimit:10;stroke-opacity:1;stroke-dasharray:none"
             id="path328" />
        </g>
        <g
           id="g330"
           transform="matrix(1.25,0,0,-1.25,84.849814,371.4455)">
          <path
             inkscape:connector-curvature="0"
             d="M 0,0 -5.611,3.24 0,6.481 5.614,3.24 0,0 z"
             style="fill:#fdf3a5;fill-opacity:1;fill-rule:nonzero;stroke:none"
             id="path332" />
        </g>
        <g
           id="g334"
           transform="matrix(1.25,0,0,-1.25,84.849814,379.54487)">
          <path
             inkscape:connector-curvature="0"
             d="M 0,0 0,6.479 5.614,9.72 5.614,3.24 0,0 z"
             style="fill:#92113c;fill-opacity:1;fill-rule:nonzero;stroke:none"
             id="path336" />
        </g>
        <g
           id="g338"
           transform="matrix(1.25,0,0,-1.25,84.849814,379.54487)">
          <path
             inkscape:connector-curvature="0"
             d="m 0,0 0,6.479 -5.611,3.241 0,-6.48 L 0,0 z"
             style="fill:#1d509a;fill-opacity:1;fill-rule:nonzero;stroke:none"
             id="path340" />
        </g>
        <g
           id="g342"
           transform="matrix(1.25,0,0,-1.25,88.367814,389.60775)">
          <path
             inkscape:connector-curvature="0"
             d="M 0,0 4.713,-2.455"
             style="fill:none;stroke:#8892b8;stroke-width:0.75;stroke-linecap:round;stroke-linejoin:miter;stroke-miterlimit:10;stroke-opacity:1;stroke-dasharray:none"
             id="path344" />
        </g>
        <g
           id="g346"
           transform="matrix(1.25,0,0,-1.25,127.07506,412.0955)">
          <path
             inkscape:connector-curvature="0"
             d="M 0,0 -5.611,3.24 0,6.481 5.614,3.24 0,0 z"
             style="fill:#fdf3a5;fill-opacity:1;fill-rule:nonzero;stroke:none"
             id="path348" />
        </g>
        <g
           id="g350"
           transform="matrix(1.25,0,0,-1.25,127.07506,420.1955)">
          <path
             inkscape:connector-curvature="0"
             d="m 0,0 0,6.48 5.614,3.24 0,-6.48 L 0,0 z"
             style="fill:#92113c;fill-opacity:1;fill-rule:nonzero;stroke:none"
             id="path352" />
        </g>
        <g
           id="g354"
           transform="matrix(1.25,0,0,-1.25,127.07506,420.1955)">
          <path
             inkscape:connector-curvature="0"
             d="m 0,0 0,6.48 -5.611,3.24 0,-6.48 L 0,0 z"
             style="fill:#1d509a;fill-opacity:1;fill-rule:nonzero;stroke:none"
             id="path356" />
        </g>
        <g
           id="g358"
           transform="matrix(1.25,0,0,-1.25,98.947684,395.89437)">
          <path
             inkscape:connector-curvature="0"
             d="M 0,0 -5.611,3.24 0,6.481 5.614,3.24 0,0 z"
             style="fill:#fdf3a5;fill-opacity:1;fill-rule:nonzero;stroke:none"
             id="path360" />
        </g>
        <g
           id="g362"
           transform="matrix(1.25,0,0,-1.25,98.947684,403.99375)">
          <path
             inkscape:connector-curvature="0"
             d="M 0,0 0,6.479 5.614,9.72 5.614,3.24 0,0 z"
             style="fill:#92113c;fill-opacity:1;fill-rule:nonzero;stroke:none"
             id="path364" />
        </g>
        <g
           id="g366"
           transform="matrix(1.25,0,0,-1.25,98.947684,403.99375)">
          <path
             inkscape:connector-curvature="0"
             d="m 0,0 0,6.479 -5.611,3.241 0,-6.48 L 0,0 z"
             style="fill:#1d509a;fill-opacity:1;fill-rule:nonzero;stroke:none"
             id="path368" />
        </g>
        <g
           id="g370"
           transform="matrix(1.25,0,0,-1.25,84.850934,338.45362)">
          <path
             inkscape:connector-curvature="0"
             d="M 0,0 -5.611,3.24 0,6.481 5.614,3.24 0,0 z"
             style="fill:#fdf3a5;fill-opacity:1;fill-rule:nonzero;stroke:none"
             id="path372" />
        </g>
        <g
           id="g374"
           transform="matrix(1.25,0,0,-1.25,84.850934,346.553)">
          <path
             inkscape:connector-curvature="0"
             d="M 0,0 0,6.479 5.614,9.72 5.614,3.24 0,0 z"
             style="fill:#92113c;fill-opacity:1;fill-rule:nonzero;stroke:none"
             id="path376" />
        </g>
        <g
           id="g378"
           transform="matrix(1.25,0,0,-1.25,84.850934,346.553)">
          <path
             inkscape:connector-curvature="0"
             d="m 0,0 0,6.479 -5.611,3.241 0,-6.48 L 0,0 z"
             style="fill:#1d509a;fill-opacity:1;fill-rule:nonzero;stroke:none"
             id="path380" />
        </g>
        <g
           id="g382"
           transform="matrix(1.25,0,0,-1.25,127.07506,379.54612)">
          <path
             inkscape:connector-curvature="0"
             d="M 0,0 -5.611,3.24 0,6.481 5.614,3.24 0,0 z"
             style="fill:#fdf3a5;fill-opacity:1;fill-rule:nonzero;stroke:none"
             id="path384" />
        </g>
        <g
           id="g386"
           transform="matrix(1.25,0,0,-1.25,127.07506,387.6455)">
          <path
             inkscape:connector-curvature="0"
             d="M 0,0 0,6.479 5.614,9.72 5.614,3.24 0,0 z"
             style="fill:#92113c;fill-opacity:1;fill-rule:nonzero;stroke:none"
             id="path388" />
        </g>
        <g
           id="g390"
           transform="matrix(1.25,0,0,-1.25,127.07506,387.6455)">
          <path
             inkscape:connector-curvature="0"
             d="m 0,0 0,6.479 -5.611,3.241 0,-6.48 L 0,0 z"
             style="fill:#1d509a;fill-opacity:1;fill-rule:nonzero;stroke:none"
             id="path392" />
        </g>
        <g
           id="g394"
           transform="matrix(1.25,0,0,-1.25,113.04306,355.17112)">
          <path
             inkscape:connector-curvature="0"
             d="M 0,0 -5.611,3.24 0,6.481 5.614,3.24 0,0 z"
             style="fill:#fdf3a5;fill-opacity:1;fill-rule:nonzero;stroke:none"
             id="path396" />
        </g>
        <g
           id="g398"
           transform="matrix(1.25,0,0,-1.25,113.04306,363.2705)">
          <path
             inkscape:connector-curvature="0"
             d="M 0,0 0,6.479 5.614,9.72 5.614,3.24 0,0 z"
             style="fill:#92113c;fill-opacity:1;fill-rule:nonzero;stroke:none"
             id="path400" />
        </g>
        <g
           id="g402"
           transform="matrix(1.25,0,0,-1.25,113.04306,363.2705)">
          <path
             inkscape:connector-curvature="0"
             d="m 0,0 0,6.479 -5.611,3.241 0,-6.48 L 0,0 z"
             style="fill:#1d509a;fill-opacity:1;fill-rule:nonzero;stroke:none"
             id="path404" />
        </g>
      </g>
    </g>
  </g>
</svg>
