<?xml version="1.0" encoding="utf-8"?>
<!-- Generator: Adobe Illustrator 25.0.1, SVG Export Plug-In . SVG Version: 6.00 Build 0)  -->
<svg version="1.1" id="Layer_1" xmlns="http://www.w3.org/2000/svg" xmlns:xlink="http://www.w3.org/1999/xlink" x="0px" y="0px"
	 viewBox="0 0 773 890.8" style="enable-background:new 0 0 773 890.8;" xml:space="preserve">

<style type="text/css">
	.st0{fill:#1789DC;}
	.st1{fill:#56CAD8;}
	.st2{fill:#74D5DE;}
	.st3{fill:#DE8E68;}
	.st4{fill:#FCC486;}
	.st5{fill:#FED385;}
	.st6{fill:#FED892;}
	.st7{fill:#115F8E;}
</style>

<g id="Layer_2_1_">

	<g id="Vector">

		<path class="st0" d="M630.6,118.3c80.3,33.7,139.6,126.1,142.3,217.1c2.5,91.2-51.6,180.9-109.1,258.2
			c-57.3,77.1-118,141.7-192.6,170c-74.8,28.3-163.6,20.5-227.3-19.1C180.3,705,142.1,633.8,99.7,563.3
			C57.3,493.1,11,423.5,1.8,340.6c-9.4-82.8,18.4-179.4,82.3-215.9s163.6-13.1,264.2-13.9S550.1,84.8,630.6,118.3z"/>
		<path class="st1" d="M206.7,357.2c0.6,13.1,0,509.7,0,509.7h34.7l53-326.3C295.1,530,304.7,413,304.7,413l-61-62.7L206.7,357.2z"
			/>

		<path class="st2" d="M346.8,353.7c0,0,39.7,254,39.7,264.3s-65,244.7-65,244.7h-33.4l28.4-270.2L219.2,364"/>
		
		<path class="st3" d="M181.6,257.6c-1.8,2.6-13.2,29.2-12.3,39.7c1.3,16,12.3,24.9,31.1,34.6c5.4,0,11.2-62.4,11.2-62.4l-16.9-11.9
			H181.6z"/>
		
		<path class="st4" d="M219.2,188.2c-25.3,19.5-46.7,58-42.6,65.1c2,3.3,12.4,9.2,24.3,14.6"/>
		
			<ellipse transform="matrix(0.2373 -0.9714 0.9714 0.2373 141.7312 327.6747)" class="st3" cx="279.6" cy="73.6" rx="56.1" ry="44.2"/>
		
		<path class="st5" d="M276.8,139.7c56.2,0,79.2,201.7,70,214c-12.6,16.8-102.7,30.3-140,3.5C192.4,347,190.2,139.7,276.8,139.7z"/>
		
		<polyline points="206.7,867 206.7,890.8 288.1,890.8 288.1,877.3 241.4,867 		"/>
		
		<polyline points="288.1,862.7 288.1,890.8 373.4,890.8 373.4,879.9 321.5,862.7 		"/>
		
		<path class="st3" d="M356.5,244.7c1.6,1.7,15.2,21.6,17.2,25.9c3.8-3.2,126.2-105.8,128.2-107.2s5.5-1.3,6.9-0.4
			c2.3,1.5,3.1,4.5,1.9,6.9c-1.1,2-16.3,15.4-16.3,15.4c1.2,1.6,7.6,17.6-0.5,25.2c-5.5,5.1-11.8,6.9-17.8,3.7
			c-4,4.3-99.6,110-116.3,110c-7.7,0-34.2-27.2-46.1-47.6"/>
		
		<path class="st6" d="M272,199.7c0,33,26,79,35,79s54-33,54-41s-35-67-65-67C284,170.7,272,183.7,272,199.7z"/>
		
		<path d="M269,67.7c17.2,0.1,48.5-33.7,48.5-35c0-3-5.3-18.9-36.2-18.9c-22,0-56.7,15.4-56.7,66.2c0,26.1-10.2,54-10.2,66.6
			c0,19.1,15.4,31.2,39.8,31.2c11.8,0,29.5-5.8,29.5-15.3c0-13.9,14.3-59.2-13-69"/>
		
		<path class="st3" d="M273.8,92.1c-1.6,1.1-3.5,1.6-5.5,1.6c-6.2,0-11.3-5.8-11.3-13.1s5-13,11.3-13c1.2,0,2.3,0.2,3.4,0.6"/>
		
		<rect x="532.3" y="0" class="st7" width="198" height="146.4"/>
		
		<circle class="st7" cx="631.3" cy="272.5" r="84.3"/>
	
	</g>

</g>

</svg>
