<?xml version="1.0" encoding="utf-8"?>
<!-- Generator: Adobe Illustrator 25.0.1, SVG Export Plug-In . SVG Version: 6.00 Build 0)  -->
<svg version="1.1" id="Layer_1" xmlns="http://www.w3.org/2000/svg" xmlns:xlink="http://www.w3.org/1999/xlink" x="0px" y="0px"
	 viewBox="0 0 24 24" style="enable-background:new 0 0 24 24;" xml:space="preserve">
<style type="text/css">
	.st0{fill:none;}
	.st1{fill:url(#SVGID_1_);}
	.st2{fill:url(#SVGID_2_);}
</style>
<circle class="st0" cx="17.5" cy="18.5" r="1.5"/>
<circle class="st0" cx="5.5" cy="11.5" r="1.5"/>
<circle class="st0" cx="17.5" cy="5.5" r="1.5"/>
<linearGradient id="SVGID_1_" gradientUnits="userSpaceOnUse" x1="11.5" y1="2.2979" x2="11.5" y2="21.2979">
	<stop  offset="0" style="stop-color:#F6F6F6"/>
	<stop  offset="0.9917" style="stop-color:#B2DFFF"/>
</linearGradient>
<path class="st1" d="M5.5,15c0.9,0,1.7-0.4,2.4-0.9l6.3,3.6C14,17.9,14,18.2,14,18.5c0,1.9,1.6,3.5,3.5,3.5s3.5-1.6,3.5-3.5
	S19.4,15,17.5,15c-0.9,0-1.7,0.4-2.4,0.9l-6.3-3.6C8.9,12.1,9,11.9,9,11.6l6.2-3.5C15.8,8.6,16.6,9,17.5,9C19.4,9,21,7.4,21,5.5
	S19.4,2,17.5,2S14,3.6,14,5.5c0,0.3,0,0.6,0.1,0.9L8.4,9.6C7.8,8.6,6.7,8,5.5,8C3.6,8,2,9.6,2,11.5S3.6,15,5.5,15z M17.5,17
	c0.8,0,1.5,0.7,1.5,1.5S18.3,20,17.5,20S16,19.3,16,18.5S16.7,17,17.5,17z M17.5,4C18.3,4,19,4.7,19,5.5S18.3,7,17.5,7
	S16,6.3,16,5.5S16.7,4,17.5,4z M5.5,10C6.3,10,7,10.7,7,11.5S6.3,13,5.5,13S4,12.3,4,11.5S4.7,10,5.5,10z"/>
<linearGradient id="SVGID_2_" gradientUnits="userSpaceOnUse" x1="50.1915" y1="16.1915" x2="50.1915" y2="-4.1878" gradientTransform="matrix(1 0 0 -1 0 23.8898)">
	<stop  offset="0" style="stop-color:#F6F6F6"/>
	<stop  offset="0.9917" style="stop-color:#B2DFFF"/>
</linearGradient>
<path class="st2" d="M50.2,7.7l-8,3v6.1c0,5,3.4,9.8,8,10.9c4.6-1.1,8-5.9,8-10.9v-6.1L50.2,7.7z M49.1,21.2l-3.5-3.5l1.4-1.4
	l2.1,2.1l4.2-4.2l1.4,1.4L49.1,21.2z"/>
</svg>
