<?xml version="1.0" encoding="utf-8"?>
<!-- Generator: Adobe Illustrator 25.0.1, SVG Export Plug-In . SVG Version: 6.00 Build 0)  -->
<svg version="1.1" id="Layer_1" xmlns="http://www.w3.org/2000/svg" xmlns:xlink="http://www.w3.org/1999/xlink" x="0px" y="0px"
	 viewBox="0 0 24 24" style="enable-background:new 0 0 24 24;" xml:space="preserve">
<style type="text/css">
	.st0{fill:url(#SVGID_1_);}
	.st1{fill:url(#SVGID_2_);}
</style>
<linearGradient id="SVGID_1_" gradientUnits="userSpaceOnUse" x1="11.3535" y1="2.0349" x2="11.3535" y2="20.3603">
	<stop  offset="0" style="stop-color:#F6F6F6"/>
	<stop  offset="0.9917" style="stop-color:#B2DFFF"/>
</linearGradient>
<path class="st0" d="M10,18c1.8,0,3.5-0.6,4.9-1.7l4.4,4.4l1.4-1.4l-4.4-4.4c1.1-1.4,1.7-3.1,1.7-4.9c0-4.4-3.6-8-8-8s-8,3.6-8,8
	S5.6,18,10,18z M10,4c3.3,0,6,2.7,6,6s-2.7,6-6,6s-6-2.7-6-6S6.7,4,10,4z"/>
<linearGradient id="SVGID_2_" gradientUnits="userSpaceOnUse" x1="10.587" y1="0.8678" x2="10.587" y2="23.3047">
	<stop  offset="0" style="stop-color:#F6F6F6"/>
	<stop  offset="0.9917" style="stop-color:#B2DFFF"/>
</linearGradient>
<path class="st1" d="M11.4,8.6C11.8,9,12,9.5,12,10h2c0-1.1-0.4-2.1-1.2-2.8c-1.5-1.5-4.1-1.5-5.7,0l1.4,1.4
	C9.3,7.8,10.7,7.8,11.4,8.6z"/>
</svg>
