<svg xmlns="http://www.w3.org/2000/svg" xmlns:xlink="http://www.w3.org/1999/xlink" width="24" height="24" preserveAspectRatio="xMidYMid meet" viewBox="0 0 24 24" style="-ms-transform: rotate(360deg); -webkit-transform: rotate(360deg); transform: rotate(360deg);"><g fill="none"><path d="M4 4v16a2 2 0 0 0 2 2h12a2 2 0 0 0 2-2V8.342a2 2 0 0 0-.602-1.43l-4.44-4.342A2 2 0 0 0 13.56 2H6a2 2 0 0 0-2 2z" stroke="#444444" stroke-width="2" stroke-linecap="round" stroke-linejoin="round"/><path d="M9 13h6" stroke="#444444" stroke-width="2" stroke-linecap="round" stroke-linejoin="round"/><path d="M9 17h3" stroke="#444444" stroke-width="2" stroke-linecap="round" stroke-linejoin="round"/><path d="M14 2v4a2 2 0 0 0 2 2h4" stroke="#444444" stroke-width="2" stroke-linejoin="round"/></g><rect x="0" y="0" width="24" height="24" fill="rgba(0, 0, 0, 0)" /></svg>