<?xml version="1.0" encoding="utf-8"?>
<!-- Generator: Adobe Illustrator 25.0.1, SVG Export Plug-In . SVG Version: 6.00 Build 0)  -->
<svg version="1.1" id="Layer_1" xmlns="http://www.w3.org/2000/svg" xmlns:xlink="http://www.w3.org/1999/xlink" x="0px" y="0px"
	 viewBox="0 0 24 24" style="enable-background:new 0 0 24 24;" xml:space="preserve">
<style type="text/css">
	.st0{fill:url(#SVGID_1_);}
	.st1{fill:url(#SVGID_2_);}
</style>
<g>
	<linearGradient id="SVGID_1_" gradientUnits="userSpaceOnUse" x1="12.0115" y1="2.1344" x2="12.0115" y2="22.152">
		<stop  offset="0" style="stop-color:#F6F6F6"/>
		<stop  offset="0.9917" style="stop-color:#B2DFFF"/>
	</linearGradient>
	<path class="st0" d="M3.4,10c-1.9,1.9-1.9,5,0,7c1.7,1.7,4.3,1.9,6.2,0.6l4.3,4.3c0.3,0.3,0.8,0.3,1.1,0c0.3-0.3,0.3-0.7,0.1-1
		L15,20.7l-4.2-4.2c1.7-2.1,1.3-5.2-0.9-6.9C8,8,5.2,8.2,3.4,10z M12,2C7.3,2,3.3,5.3,2.3,9.8C2.9,9,3.6,8.4,4.5,8
		c1-1.8,2.5-3.2,4.4-3.9L8.8,4.3c-0.5,0.9-1,2-1.3,3.3C8,7.6,8.5,7.7,9,7.9c0.6-2.6,1.8-4.4,3-4.4l0.1,0c1.3,0.1,2.5,2.1,3.1,5h-5
		c0.6,0.4,1.1,0.9,1.6,1.5l3.7,0c0.2,1.7,0.1,3.3-0.1,5h-2.6c-0.1,0.3-0.2,0.6-0.3,0.8l-0.1,0.3l-0.1,0.2l0.2,0.2H15
		c-0.2,0.7-0.5,1.4-0.7,2l1.1,1.1c0.5-0.9,0.9-1.9,1.2-3.1l2.7,0c-0.9,1.4-2.2,2.6-3.7,3.3l0.2,0.2l0.1,0.1c0.2,0.3,0.3,0.6,0.4,1
		c3.5-1.6,5.8-5.2,5.8-9.1C22,6.5,17.5,2,12,2z M9.3,11c1.3,1.3,1.3,3.5,0,4.8s-3.5,1.3-4.8,0c0,0,0,0,0,0c-1.3-1.3-1.3-3.5,0-4.8
		C5.9,9.7,8,9.7,9.3,11z M16.9,10l3.4,0l0,0c0.1,0.6,0.2,1.3,0.2,2c0,1-0.2,2-0.5,3l-3.2,0c0.1-0.9,0.2-2,0.2-3
		C17,11.3,17,10.6,16.9,10z M15.1,4.1L15.1,4.1c2.1,0.8,3.7,2.4,4.6,4.4h-3C16.4,6.7,15.9,5.2,15.1,4.1L15.1,4.1z"/>
</g>
<linearGradient id="SVGID_2_" gradientUnits="userSpaceOnUse" x1="37.6277" y1="16.4043" x2="37.6277" y2="-3.975" gradientTransform="matrix(1 0 0 -1 0 23.8898)">
	<stop  offset="0" style="stop-color:#F6F6F6"/>
	<stop  offset="0.9917" style="stop-color:#B2DFFF"/>
</linearGradient>
<path class="st1" d="M37.6,7.5l-8,3v6.1c0,5,3.4,9.8,8,10.9c4.6-1.1,8-5.9,8-10.9v-6.1L37.6,7.5z M36.5,21L33,17.5l1.4-1.4l2.1,2.1
	l4.2-4.2l1.4,1.4L36.5,21z"/>
</svg>
