<?xml version="1.0" encoding="utf-8"?>
<!-- Generator: Adobe Illustrator 25.0.1, SVG Export Plug-In . SVG Version: 6.00 Build 0)  -->
<svg version="1.1" id="Layer_1" xmlns="http://www.w3.org/2000/svg" xmlns:xlink="http://www.w3.org/1999/xlink" x="0px" y="0px"
	 viewBox="0 0 32 32" style="enable-background:new 0 0 32 32;" xml:space="preserve">
<style type="text/css">
	.st0{fill:url(#SVGID_1_);}
	.st1{fill:url(#SVGID_2_);}
	.st2{fill:url(#SVGID_3_);}
	.st3{fill:url(#SVGID_4_);}
	.st4{fill:url(#SVGID_5_);}
	.st5{fill:url(#SVGID_6_);}
</style>
<linearGradient id="SVGID_1_" gradientUnits="userSpaceOnUse" x1="19" y1="26" x2="23" y2="26" gradientTransform="matrix(6.123234e-17 1 -1 6.123234e-17 47 5)">
	<stop  offset="0" style="stop-color:#F6F6F6"/>
	<stop  offset="0.9917" style="stop-color:#B2DFFF"/>
</linearGradient>
<circle class="st0" cx="21" cy="26" r="2"/>
<linearGradient id="SVGID_2_" gradientUnits="userSpaceOnUse" x1="19" y1="6" x2="23" y2="6" gradientTransform="matrix(6.123234e-17 1 -1 6.123234e-17 27 -15)">
	<stop  offset="0" style="stop-color:#F6F6F6"/>
	<stop  offset="0.9917" style="stop-color:#B2DFFF"/>
</linearGradient>
<circle class="st1" cx="21" cy="6" r="2"/>
<linearGradient id="SVGID_3_" gradientUnits="userSpaceOnUse" x1="2" y1="16" x2="6" y2="16" gradientTransform="matrix(6.123234e-17 1 -1 6.123234e-17 20 12)">
	<stop  offset="0" style="stop-color:#F6F6F6"/>
	<stop  offset="0.9917" style="stop-color:#B2DFFF"/>
</linearGradient>
<circle class="st2" cx="4" cy="16" r="2"/>
<linearGradient id="SVGID_4_" gradientUnits="userSpaceOnUse" x1="18" y1="1.5745" x2="18" y2="30.6559">
	<stop  offset="0" style="stop-color:#F6F6F6"/>
	<stop  offset="0.9917" style="stop-color:#B2DFFF"/>
</linearGradient>
<path class="st3" d="M28,12c-1.8,0-3.4,1.2-3.9,3h-4.3c-0.5-2.1-2.7-3.4-4.8-2.9c-0.2,0.1-0.5,0.1-0.7,0.2l-3.2-4
	C11.7,7.7,12,6.9,12,6c0-2.2-1.8-4-4-4S4,3.8,4,6s1.8,4,4,4c0.6,0,1.1-0.1,1.6-0.4l3.2,4c-1.1,1.4-1.1,3.4,0,4.8l-3.2,4
	C9.1,22.1,8.6,22,8,22c-2.2,0-4,1.8-4,4s1.8,4,4,4s4-1.8,4-4c0-0.9-0.3-1.7-0.8-2.4l3.2-4c2,0.9,4.3,0,5.3-2
	c0.1-0.2,0.2-0.4,0.2-0.7h4.3c0.6,2.1,2.7,3.4,4.9,2.9c2.1-0.6,3.4-2.7,2.9-4.9C31.4,13.2,29.8,12,28,12z M6,6c0-1.1,0.9-2,2-2
	s2,0.9,2,2S9.1,8,8,8C6.9,8,6,7.1,6,6z M8,28c-1.1,0-2-0.9-2-2s0.9-2,2-2s2,0.9,2,2C10,27.1,9.1,28,8,28z M16,18c-1.1,0-2-0.9-2-2
	s0.9-2,2-2s2,0.9,2,2C18,17.1,17.1,18,16,18z M28,18c-1.1,0-2-0.9-2-2s0.9-2,2-2s2,0.9,2,2C30,17.1,29.1,18,28,18z"/>
<linearGradient id="SVGID_5_" gradientUnits="userSpaceOnUse" x1="58.9149" y1="14.5069" x2="58.9149" y2="32.8323">
	<stop  offset="0" style="stop-color:#F6F6F6"/>
	<stop  offset="0.9917" style="stop-color:#B2DFFF"/>
</linearGradient>
<path class="st4" d="M57.6,30.5c1.8,0,3.5-0.6,4.9-1.7l4.4,4.4l1.4-1.4l-4.4-4.4c1.1-1.4,1.7-3.1,1.7-4.9c0-4.4-3.6-8-8-8
	s-8,3.6-8,8S53.2,30.5,57.6,30.5z M57.6,16.5c3.3,0,6,2.7,6,6s-2.7,6-6,6c-3.3,0-6-2.7-6-6S54.3,16.5,57.6,16.5z"/>
<linearGradient id="SVGID_6_" gradientUnits="userSpaceOnUse" x1="58.1484" y1="16.9143" x2="58.1484" y2="21.0052">
	<stop  offset="0" style="stop-color:#F6F6F6"/>
	<stop  offset="0.9917" style="stop-color:#B2DFFF"/>
</linearGradient>
<path class="st5" d="M59,21.1c0.4,0.4,0.6,0.9,0.6,1.4h2c0-1.1-0.4-2.1-1.2-2.8c-1.5-1.5-4.1-1.5-5.7,0l1.4,1.4
	C56.9,20.3,58.2,20.3,59,21.1z"/>
</svg>
