<?xml version="1.0" encoding="utf-8"?>
<!-- Generator: Adobe Illustrator 25.0.1, SVG Export Plug-In . SVG Version: 6.00 Build 0)  -->
<svg version="1.1" id="Layer_1" xmlns="http://www.w3.org/2000/svg" xmlns:xlink="http://www.w3.org/1999/xlink" x="0px" y="0px"
	 viewBox="0 0 24 24" style="enable-background:new 0 0 24 24;" xml:space="preserve">
<style type="text/css">
	.st0{fill:url(#SVGID_1_);}
	.st1{fill:url(#SVGID_2_);}
	.st2{fill:url(#SVGID_3_);}
</style>
<linearGradient id="SVGID_1_" gradientUnits="userSpaceOnUse" x1="12" y1="1.9574" x2="12" y2="22.3367">
	<stop  offset="0" style="stop-color:#F6F6F6"/>
	<stop  offset="0.9917" style="stop-color:#B2DFFF"/>
</linearGradient>
<path class="st0" d="M12,2L4,5v6.1c0,5,3.4,9.8,8,10.9c4.6-1.1,8-5.9,8-10.9V5L12,2z M10.9,15.5L7.4,12l1.4-1.4l2.1,2.1l4.2-4.2
	l1.4,1.4L10.9,15.5z"/>
<linearGradient id="SVGID_2_" gradientUnits="userSpaceOnUse" x1="-35.5" y1="-44.9293" x2="-35.5" y2="-26.6039">
	<stop  offset="0" style="stop-color:#F6F6F6"/>
	<stop  offset="0.9917" style="stop-color:#B2DFFF"/>
</linearGradient>
<path class="st1" d="M-36.9-29c1.8,0,3.5-0.6,4.9-1.7l4.4,4.4l1.4-1.4l-4.4-4.4c1.1-1.4,1.7-3.1,1.7-4.9c0-4.4-3.6-8-8-8s-8,3.6-8,8
	S-41.3-29-36.9-29z M-36.9-43c3.3,0,6,2.7,6,6c0,3.3-2.7,6-6,6c-3.3,0-6-2.7-6-6C-42.9-40.3-40.2-43-36.9-43z"/>
<linearGradient id="SVGID_3_" gradientUnits="userSpaceOnUse" x1="-36.2665" y1="-42.5219" x2="-36.2665" y2="-38.431">
	<stop  offset="0" style="stop-color:#F6F6F6"/>
	<stop  offset="0.9917" style="stop-color:#B2DFFF"/>
</linearGradient>
<path class="st2" d="M-35.4-38.4c0.4,0.4,0.6,0.9,0.6,1.4h2c0-1.1-0.4-2.1-1.2-2.8c-1.5-1.5-4.1-1.5-5.7,0l1.4,1.4
	C-37.5-39.1-36.2-39.1-35.4-38.4z"/>
</svg>
