<?xml version="1.0" encoding="utf-8"?>
<!-- Generator: Adobe Illustrator 25.0.1, SVG Export Plug-In . SVG Version: 6.00 Build 0)  -->
<svg version="1.1" id="Layer_1" xmlns="http://www.w3.org/2000/svg" xmlns:xlink="http://www.w3.org/1999/xlink" x="0px" y="0px"
	 viewBox="0 0 20 20" style="enable-background:new 0 0 20 20;" xml:space="preserve">
<style type="text/css">
	.st0{fill:url(#SVGID_1_);}
	.st1{fill:url(#SVGID_2_);}
	.st2{fill:url(#SVGID_3_);}
</style>
<linearGradient id="SVGID_1_" gradientUnits="userSpaceOnUse" x1="10" y1="1.193" x2="10" y2="19.1667">
	<stop  offset="0" style="stop-color:#F6F6F6"/>
	<stop  offset="0.9917" style="stop-color:#B2DFFF"/>
</linearGradient>
<path class="st0" d="M10,2.6c0.8,0,1.5,0.7,1.5,1.5S10.8,5.6,10,5.6c-0.8,0-1.5-0.7-1.5-1.5S9.2,2.6,10,2.6z M3.4,7.4
	c0-0.7,6.6-0.8,6.6-0.8s6.6,0.1,6.6,0.8s-4.5,1.4-4.5,1.4s1.7,8.1,1.1,8.4c-0.6,0.2-3.2-5.2-3.2-5.2s-2.6,5.4-3.2,5.2
	c-0.6-0.2,1.1-8.4,1.1-8.4S3.4,8,3.4,7.4z"/>
<linearGradient id="SVGID_2_" gradientUnits="userSpaceOnUse" x1="61.545" y1="-5.2141" x2="61.545" y2="13.1113">
	<stop  offset="0" style="stop-color:#F6F6F6"/>
	<stop  offset="0.9917" style="stop-color:#B2DFFF"/>
</linearGradient>
<path class="st1" d="M60.2,10.8c1.8,0,3.5-0.6,4.9-1.7l4.4,4.4l1.4-1.4l-4.4-4.4c1.1-1.4,1.7-3.1,1.7-4.9c0-4.4-3.6-8-8-8
	s-8,3.6-8,8S55.8,10.8,60.2,10.8z M60.2-3.2c3.3,0,6,2.7,6,6s-2.7,6-6,6c-3.3,0-6-2.7-6-6S56.9-3.2,60.2-3.2z"/>
<linearGradient id="SVGID_3_" gradientUnits="userSpaceOnUse" x1="60.7785" y1="-2.8067" x2="60.7785" y2="1.2842">
	<stop  offset="0" style="stop-color:#F6F6F6"/>
	<stop  offset="0.9917" style="stop-color:#B2DFFF"/>
</linearGradient>
<path class="st2" d="M61.6,1.3c0.4,0.4,0.6,0.9,0.6,1.4h2c0-1.1-0.4-2.1-1.2-2.8c-1.5-1.5-4.1-1.5-5.7,0l1.4,1.4
	C59.5,0.6,60.8,0.6,61.6,1.3z"/>
</svg>
